<?xml version="1.0" encoding="utf-8"?>
<svg version="1.1" id="Layer_1" xmlns="http://www.w3.org/2000/svg" xmlns:xlink="http://www.w3.org/1999/xlink" x="0px" y="0px"
	 viewBox="0 0 2633.86 1405.781" enable-background="new 0 0 2633.86 1405.781" xml:space="preserve">
<g>
	<path fill="#141414" d="M1032.943,59.03c201.41-51.667,298.684-50.336,469.954-7.99c363.229,89.027,323.521,56.26,412.334,44.297
		c95.998-15.428,224.918-69.467,332.91,36.819c9.721,10.804,23.556,16.314,36.072,23.143
		c68.778,35.438,104.126,29.146,115.496,57.404c5.864,14.444-0.945,30.739-10.843,41.621c-32.982,6.888-66.24,12.575-99.418,18.341
		c-262.467,128.684-356.081-101.328-610.698,26.252c132.244,55.278,201.07,139.849,275.151,225.895
		c81.77,94.723,279.972,326.507,351.407,431.934c43.789,63.376,89.184,130.223,156.507,167.921c2.342,1.555,5.746,2.499,6.199,5.825
		c26.444,94.212,96.031,92.687,128.917,133.876c-72.91-7.284-137.991-35.851-195.314-81.766
		c10.784,32.628,28.259,62.599,49.198,89.697c-39.988-5.136-74.052-29.774-101.937-57.502c-0.984,17.357-6.455,34.379-15.782,49.04
		c-143.555-131.923-167.026-146.422-179.807-177.032c-1.008-3.002,2.628,0.127-67.243-56.223
		c-39.448,20.191-92.993-3.025-127.776-30.64c-66.775,11.177-94.772-59.182-122.462-94.302
		c-57.966,33.164-111.634-5.893-100.638-62.796c-58.995,13.293-100.528-20.73-104.122-62.264
		c-32.41-2.623-47.107-37.378-68.817-61.497c-31.554,12.733-62.606,9.944-77.771-20.151c-5.923-11.473-8.462-24.264-10.587-36.878
		c-15.428,0.768-31.959-0.394-45.026-9.544c-10.469-7.419-18.597-18.459-20.505-31.349c-46.112,5.092-67.871-19.273-65.748-42.152
		c-17.75,3.345-36.898,8.541-54.412,1.535c-19.344-8.777-27.275-31.801-25.504-51.775c-45.931,13.48-93.062,23.477-140.764,27.846
		c-1.456,40.834-10.981,81.432-28.161,118.546c-9.857,22.274-1.563,52.54-46.226,117.306
		c-6.424,124.595,12.997,248.947-36.682,364.652c-26.72,60.85-54.077,80.725-62.186,91.33
		c-11.886,17.632-29.518,30.522-47.682,41.09c-15.586,0.295-31.073-5.451-44.711-12.831c-3.664,20.406-11.48,86.814-58.938,90.307
		c-23.379,2.204-46.088-10.154-60.513-28.003c-17.382,21.332-46.685,54.074-73.816,45.891c-10.981-2.932-19.266-12.85-21.352-23.851
		c-3.778-17.672,1.948-35.481,7.852-51.992c-10.253,10.174-18.97,22.67-32.47,28.849c-28.08,12.795-61.218-20.642-23.418-120.18
		c-9.977,8.383-20.781,16.668-33.828,19.384c-19.895,5.274-44.947-2.243-53.743-22.08c-16.469-33.705,22.68-79.191,39.653-106.05
		c-18.046,8.442-36.701,17.927-57.167,17.514c-34.285-2.32-72.81-30.165-32.529-90.799c-26.951,1.364-42.593-15.905-35.953-38.394
		c3.955-10.961,11.748-19.915,19.246-28.633c-31.712-2.765-50.769-7.04-53.96-20.624c-4.648-14.436,13.556-32.701,30.463-51.283
		c-12.536-3.109-25.209-6.868-36.229-13.815c-17.024-10.587-12.263-29.784,2.322-45.242c-5.589-1.889-11.729-3.483-15.684-8.187
		c-8.737-8.678-7.36-23.162-1.122-32.864c6.219-9.643,16.353-15.448,25.563-21.765c-14.409-16.232-9.91-35.987,5.018-49.867
		c-3.857-8.501-3.208-18.301,0.374-26.783c-16.193-7.593-29.959-25.839-16.924-51.402c-13.952-15.389-18.065-39.26-8.639-57.974
		c-4.388-2.44-8.383-6.75-13.854-5.786c-83.161,2.579-170.116-12.941-254.744,23.103c-9.8,3.778-18.282,10.292-27.924,14.248
		c-7.773,0.905-15.409,2.558-23.064,4.133c9.977-9.308,19.797-18.951,31.053-26.744c5.943-25.425,28.653-43.589,53.527-48.843
		c-2.676-10.194,2.814-19.226,6.71-28.141c-2.952-0.157-6.022-0.728-8.698,0.866c-19.128,8.068-38.531,15.901-56.223,26.882
		c-12.752-6.671-26.724-10.351-40.322-14.858c7.203-7.045,14.917-13.539,23.3-19.167c-5.353-2.912-10.902-5.51-16.786-7.124
		c8.147-7.754,16.648-15.172,25.996-21.47c-9.584-6.219-20.624-9.466-30.62-14.838c6.671-6.022,13.952-11.296,21.371-16.314
		c-7.163-4.467-15.389-6.632-22.867-10.45c5.549-4.684,11.63-8.678,18.085-11.945c-6.553-2.913-13.578-5.707-17.888-11.748
		c18.046-15.428,40.224-24.776,62.737-31.585c-2.598-2.145-5.195-4.329-8.049-6.12c-8.521-1.063-17.416,0.689-25.642-2.519
		c21.608-7.143,44.415-9.446,66.869-12.398c69.467-17.573,142.24-22.434,213.32-13.087c2.853-0.02,6.297,1.476,8.777-0.63
		C556.231,207.503,794.325,121.335,1032.943,59.03 M1059.076,77.941c-75.637,19.452-301.617,81.105-369.414,120.298
		c-36.427,22.479-41.903,41.094-109.396,93.318c23.504-9.32,249.203-111.323,576.693-170.892
		c29.073-5.292,72.334-10.248,85.308,15.783c8.364,17.475,2.165,39.063-11.04,52.385c-22.296,23.32-56.577,29.676-78.48,53.448
		c-36.18,29.492-58.455,73.138-58.033,122.639c1.639,60.445,21.796,96.457,27.491,181.381
		c283.182-54.04,373.65-179.797,528.066-256.417c-0.492-0.925-1.476-2.755-1.968-3.66c1.614,0.708,3.267,1.417,4.939,2.145
		c258.287-127.041,367.283,83.79,624.04-15.074c-38.686,2.591-78.785-8.715-96.171-40.48c33.775-18.596,42.438-57.169,19.974-90.956
		c11.453-8.009,25.583-10.705,39.299-11.473c-116.188-88.784-223.654-34.429-328.659-24.599
		c-200.196,46.163-394.953-53.946-589.208-62.599C1233.432,38.918,1145.093,56.491,1059.076,77.941 M1131.141,132.314
		c-173.966,35.076-293.36,70.434-436.382,120.416c-121.603,41.9-126.062,45.046-136.375,62.678
		c11.158,1.456,23.202-0.059,33.415,5.549c-7.301,1.358-14.897,1.122-22.06,2.952c-7.99,5.943-13.657,14.307-18.144,23.064
		c52.953,11.248,95.346-18.538,135.706-33.592c-7.143,5.825-15.448,9.938-23.162,14.917c-27.059,16.963-58.565,27.826-90.72,27.669
		c-5.904,2.539-9.938,8.521-14.936,12.614c56.175,7.198,95.368-12.384,130.944-29.755c-26.675,22.713-60.722,38.823-109.946,37.961
		c-7.557,8.423-16.589,15.527-23.556,24.481c-3.562,6.829,5.51,10.981,11.06,11.079c52.862,2.368,97.176-24.117,150.072-44.907
		c-3.235,2.77-59.573,41.914-125.591,51.047c-5.549,10.292-13.716,19.344-17.081,30.68c8.58,3.877,18.124,1.85,27.157,1.24
		c57.025-4.638,93.499-22.634,133.306-38.531c-33.762,27.827-97.139,44.179-140.114,45.636
		c-4.572,14.359,1.612,19.567,15.507,18.813c63.775-6.003,104.761-23.571,152.335-40.184
		c-23.161,17.022-77.893,40.349-157.609,47.348c10.095,9.525,25.248,7.143,37.862,6.219c35.481-2.381,67.951-17.908,100.146-31.585
		c-25.445,20.604-56.951,33.179-89.421,37.016c-10.882-0.138-18.892,12.634-15.409,22.651c2.598,4.644,8.383,6.691,13.421,5.274
		c54.373-14.858,104.063-42.133,154.263-66.968c-25.544,21.083-75.506,49.616-146.805,71.907
		c-8.521,2.972-18.183,1.692-24.795-4.723c-15.745,14.302-11.297,24.965,1.417,23.733c63.946-4.419,106.994-26.093,159.774-60.414
		c-38.512,38.787-92.098,60.119-145.959,65.511c-3.405,10.154,4.566,20.309,14.405,22.513
		c26.445,7.137,88.148-36.687,154.027-56.577c-13.705,10.2-112.989,56.742-135.923,63.858c-6.12,6.042-11.827,12.85-15.153,20.879
		c49.311,23.527,134.538-35.554,162.666-50.673c-5.561,5.718-61.65,56.081-126.595,60.985c-1.555,4.133-3.385,9.328,0.945,12.536
		c19.449,12.858,161.306-41.231,168.787-42.546c-7.813,5.412-16.826,8.777-25.268,13.067c-38.571,18.99-80.802,28.81-122.639,37.567
		c3.483,11.512,15.92,16.826,27.157,16.156c55.297-4.584,94.853-32.982,139.996-56.695c-26.97,26.89-107.893,71.387-153.319,61.221
		c-8.068,3.404-14.562,15.428-7.321,22.631c8.108,6.435,19.207,4.388,28.81,4.605c50.063-2.204,94.38-27.59,140.39-44.415
		c-42.271,28.104-100.856,52.355-153.28,50.949c-4.821,7.143-11.355,13.382-13.854,21.863c-2.165,7.045-1.614,16.373,5.392,20.486
		c8.442,3.896,17.652,0.453,26.35-0.393c92.086-14.84,147.578-83.66,154.638-89.5c-33.679,52.059-93.082,86.38-154.086,95.876
		c-2.44,0.708-6.061,0.059-7.301,2.834c-6.14,10.902-12.516,22.139-14.582,34.674c12.903,10.339,47.685,1.835,63.169-3.936
		c58.251-21.332,94.865-72.959,128.504-106.208c-6.041,10.213-14.149,19.03-21.155,28.594
		c-36.318,47.805-77.024,79.626-133.109,91.507c-7.95,9.466-14.562,20.171-19.364,31.585
		c-15.047,31.656,89.454,19.845,171.876-109.592c5.707-8.678,9.603-18.419,15.566-26.921c-20.259,68.97-96,136.298-147.396,152.571
		c-2.283,6.848-4.998,13.834-4.369,21.194c0.767,10.115,6.238,21.017,16.373,24.461c34.13,11.587,97.296-58.288,126.575-123.25
		c3.464-7.793,5.845-16.058,9.8-23.635c-12.472,76.699-86.201,144.572-117.267,152.906c-11.232,35.246,37.61,86.101,89.933,28.357
		c43.755-50.3,48.568-121.749,57.797-161.643c-0.023,10.345-3.26,73.346-22.375,117.188
		c130.204-93.957,119.906-173.329,130.865-198.699c85.233-191.553-87.248-310.181,64.291-433.607
		c49.223-38.493,65.521-36.984,79.72-59.785c6.848-11.433,9.682-27.354,1.22-38.709
		C1208.447,112.254,1162.874,126.074,1131.141,132.314 M2213.8,146.995c20.7,28.156,15.102,59.642-8.481,80.054
		c60.571,5.653,126.631-15.59,187.875,10.548c15.523-49.731-66.423-25.451-143.578-96.388
		C2237.513,142.036,2225.627,144.417,2213.8,146.995 M347.622,364.841c137.294-12.429,41.71,26.247,188.662-72.064
		c33.395-23.182,64.744-49.138,95.601-75.567C533.234,258.417,438.322,308.343,347.622,364.841 M2188.256,235.708
		c49.642,45.241,113.909,15.503,200.214,14.621c0.826-2.243,1.751-4.467,2.696-6.671c-71.507-16.971-128.963,5.604-187.718-11.512
		C2198.017,229.627,2193.176,234.074,2188.256,235.708 M1583.974,355.14c177.426,55.967,335.664,170.322,445.906,320.02
		c59.03,80.148,117.237,183.575,210.9,235.675c-11.469-16.566-352.944-434.774-391.474-476.192
		c-50.044-54.609-110.576-99.025-176.265-133.01C1642.086,317.277,1612.784,335.893,1583.974,355.14 M471.836,352.286
		c-62.507,39.418-113.837,61.292-107.113,113.666c6.465-4.665,21.543-20.046,43.668-11.237c-19.148,0-39.988,10.981-46.206,29.971
		c-3.424,9.072-1.24,18.774,0.846,27.885c22.572-4.723,45.222-10.568,68.424-10.509c-38.118,15.09-64.6,12.77-72.399,21.056
		c-2.834,5.628-0.551,11.984,1.673,17.396c17.999-16.634,29.846-18.845,61.162-15.232c-17.475,2.421-36.701,3.956-51.028,15.35
		c-9.603,7.891-15.369,23.024-7.458,33.986c9.17,12.083,24.973,14.779,38.807,18.105c-8.58,1.201-17.16,0-25.563-1.712
		c-10.863,21.273-1.181,47.505,16.629,61.694c3.66,2.735,7.832,4.723,11.414,7.596c-7.557-0.63-13.874-5.116-20.348-8.58
		c-14.36,28.653,17.934,50.032,41.956,44.042c-6.829,4.821-15.468,4.802-23.477,4.802c-3.936,7.931-4.467,17.652-0.079,25.524
		c2.44,5.471,8.206,7.97,12.89,11.119c-6.1-0.256-11.473-3.188-16.235-6.73c-17.856,19.229-12.36,38.987,6.199,45.714
		c12.752,5.786,26.803,2.755,40.185,2.283c-15.665,5.963-33.769,7.734-49.512,1.023c-9.485,6.356-20.348,11.768-26.409,21.903
		c-7.408,12.359-4.983,27.401,17.829,30.424c21.413-20.807,56.898-35.934,71.513-38.059c-8.265,4.546-17.219,7.714-25.386,12.457
		c-17.913,10.487-55.954,35.972-58.86,56.892c-0.768,20.724,45.663,29.201,65.964,30.325c20.092,1.81,39.968-2.342,59.391-6.888
		c-17.859,9.533-48.011,16.103-78.48,11.492c-31.075,39.921-58.853,59.255,23.202,64.055c20.624-20.289,46.147-36.268,74.859-41.68
		c-1.588,0.885-61.105,25.884-89.539,71.395c-16.948,26.873,12.617,42.245,29.774,38.098c7.175-7.086,37.432-48.991,94.046-69.998
		c-13.441,8.875-27.806,16.452-40.145,26.941c-28.705,23.972-80.219,71.072-66.79,106.109c16.165,46.291,96.407,19.975,103.59,9.446
		c20.505-28.239,43.432-54.885,68.975-78.657c-0.7,1.008-94.656,115.487-107.683,156.054c-9.176,30.37,5.511,48.667,28.18,51.657
		c28.981,4.824,55.948-17.907,59.293-27.019c24.288-53.153,67.391-86.67,83.596-94.223
		c-117.308,92.662-117.54,250.789-66.161,219.932c8.423-4.966,36.561-30.888,39.319-37.606
		c14.756-33.595,40.695-66.759,50.024-74.367c-25.755,35.691-77.206,124.702-52.031,153.555c7.498,8.659,20.702,8.836,30.562,4.447
		c15.861-6.593,27.432-19.738,38.964-31.959c50.568-58.742,57.328-109.401,62.894-131.161c-3.66,43.746-19.6,86.607-46.364,121.518
		c24.886,25.205,60.262,37.737,83.833,11.65c29.434-32.247,18.592-87.747,49.926-119.53c-8.108,13.244-14.543,27.59-16.688,43.117
		c12.732,7.124,26.96,12.299,41.582,13.126c6.278-3.09,12.004-7.203,17.632-11.335c-1.417-0.098-4.211-0.315-5.608-0.433
		c50.376-29.904,108.535-106.101,123.269-233.747c-21.627,22.08-62.638,13.401-76.217-13.461
		c-35.717,0.746-48.089-20.511-49.178-37.626c-13.323,1.614-28.633-2.204-36.268-14.09c-5.805-8.206-5.372-18.656-5.057-28.2
		c-17.809-3.131-44.338-19.251-38.315-59.627c-35.586,2.853-41.648-28.134-31.368-51.362c-14.816,3.254-36.611,7.456-41.877-6.022
		c-0.492-4.605-0.669-9.505,1.515-13.716c5.215-10.745,12.339-20.466,20.269-29.361c-40.458,3.045-50.999-2.381-21.45-45.852
		c-6.986,0.512-14.602,1.318-20.86-2.519c-7.124-4.152-9.682-13.421-7.832-21.096c1.712-10.725,9.623-18.813,16.747-26.39
		c-25.094-3.424-26.477-23.43-8.974-35.284c-6.966-3.916-12.496-10.351-13.677-18.439c-7.517,0-16.53,1.81-22.277-4.349
		c-4.723-4.349-3.109-11.119-2.657-16.727c-9.269,0.118-18.695,0-27.728-2.263c-5.117-1.338-9.781-7.616-6.691-12.772
		c3.011-6.435,8.6-11.119,13.519-16.078c-11.079,0.394-23.064-4.192-28.338-14.464c-2.775-4.644-1.85-10.135-1.771-15.251
		c-6.927,0.551-14.484,1.81-20.938-1.476c-6.632-3.837-6.848-13.362-3.208-19.364c2.578-5.038,7.537-8.068,11.965-11.315
		c-2.086-9.033,1.318-17.967,8.423-23.753c-11.67-0.197-24.618,2.44-34.97-4.388c-5.176-2.932-5.097-10.351-10.666-12.85
		c-7.99-4.211-7.085-14.287-5.392-21.745c-8.009,0.984-20.781,0.787-21.647-9.8c3.523-11.276,13.382-19.207,19.325-29.243
		c-11.414,0.531-24.264,3.07-34.458-3.582c-6.455-3.896-7.065-14.051-1.555-19.01c6.986-7.045,15.31-12.595,22.887-19.01
		c-10.509-1.141-21.194-1.673-31.29-5.018c7.065-5.766,14.877-10.528,22.001-16.216c-7.872-0.59-15.625-2.165-23.202-4.369
		c4.684-11.591,12.909-21.194,22.729-28.771c-3.404-0.315-6.829-0.374-10.154-1.063c-4.664-2.381-2.676-7.99-2.381-12.024
		C526.838,324.991,499.583,339.18,471.836,352.286 M128.791,379.187c0.098,6.474-0.02,12.949-0.571,19.403
		c62.619-15.468,126.497-25.72,190.709-31.703c9.603-1.279,20.742,0.728,28.574-6.258
		C316.076,357.768,223.403,360.996,128.791,379.187 M1431.836,456.486c-51.618,29.696-106.68,53.409-163.651,70.667
		c-2.55,3.331-1.881,32.18,18.341,45.222c10.528,6.533,23.595,5.687,35.383,3.975c105.169-18.93,195.744-60.279,283.535-122.738
		c-44.234-32.245-75.522-42.27-89.028-49.217c140.994,39.359,382.873,327.528,627.445,448.189
		c-136.776-130.105-173.731-310.873-565.476-493.765C1529.935,391.979,1482.607,426.889,1431.836,456.486 M172.872,398.04
		c-6.494,0.649-13.087,1.043-19.364,2.991c10.41-0.098,20.86-1.515,31.191,0.512c7.596,1.614,15.212-0.216,22.808-0.531
		c-18.734,5.982-37.803,11.256-56.026,18.872c16.117-0.964,32.333-1.2,48.371,0.964c-10.708,8.316-56.002,21.926-60.592,24.304
		c18.262-0.059,37.547,2.794,52.976,13.244c-28.83,2.609-35.006-0.662-75.292,22.099c9.407,0.787,18.734,2.558,28.22,2.598
		c-8.186,8.265-16.432,16.511-23.733,25.583c9.19,1.948,18.262,4.506,26.763,8.56c8.108-4.939,17.377-7.084,26.606-8.757
		c13.662-25.232,33.505-21.869,63.071-23.497c12.868-21.592,35.629-23.136,60.474-17.691c15.12-20.674,38.67-13.061,62.343-3.739
		c-6.714-53.009,34.072-69.964,75.548-96.958C348.153,374.169,260.464,385.996,172.872,398.04 M103.524,382.67
		c3.306,3.326,6.671,6.592,9.918,9.977c-23.536,5.805-46.128,15.271-66.653,28.2c7.202,2.696,14.877,10.115,22.65,5.294
		c65.646-26.667,75.328-8.651,100.717-19.462c-8.482-0.177-16.904,1.279-25.406,1.023c0.866-1.594,2.578-4.821,3.444-6.435
		c-8.305,0.984-16.589,2.165-24.874,3.267c0.335-7.813,1.141-15.625,2.991-23.241C118.716,381.844,111.1,382.06,103.524,382.67
		 M134.892,415.416c-36.431,7.888-31.64,3.287-85.663,26.94c6.297,2.125,12.26,5.136,17.632,9.072
		c55.804-28.592,90.853-17.336,112.879-25.189c-19.679-1.791-39.26,1.259-58.899,1.692c8.836-5.766,18.99-9.052,28.259-14.011
		C144.318,413.901,139.556,414.373,134.892,415.416 M119.464,438.598c-25.583,5.451-48.922,17.711-71.887,29.774
		c9.8,3.542,19.266,8.088,28.003,13.815c29.44-15.664,62.363-26.468,95.955-26.212c-21.446-7.223-31.653-1.738-36.898-7.281
		c-4.953-9.907,6.63-10.347,15.487-14.641C139.831,435.017,129.559,436.433,119.464,438.598 M1608.396,455.778
		c-80.038,64.365-177.054,105.161-262.439,122.207c-3.017,15.994,9.347,42.909,63.366,36.682
		c97.8-13.672,183.268-53.304,262.99-107.605C1651.61,489.252,1630.633,471.659,1608.396,455.778 M301.475,467.703
		c18.557,4.92,37.252,11.335,52.484,23.398c1.023-7.084,3.68-13.736,7.006-20.014C341.965,463.225,317.063,454.039,301.475,467.703
		 M75.717,489.547c-8.226,4.054-16.373,8.265-23.89,13.539c5.136,2.322,10.213,4.802,15.153,7.576
		c16.826-10.391,35.462-17.239,54.157-23.418c-5.136-0.413-10.312-0.413-15.448-0.827c3.385-9.151,12.614-13.047,20.505-17.436
		C108.443,473.213,91.775,481.046,75.717,489.547 M241.788,484.667c29.243,0.945,61.339,1.319,85.643,19.994
		c-14.786-3.962-26.586-14.834-110.655-12.181c-13.952,0.61-30.03,3.582-38.453,15.96c45.655-2.834,93.869-10.331,137.477,7.517
		c-1.832-0.105-50.241-8.584-119.688-1.948c-27.724,1.613-60.718,3.704-59.549,34.261c108.056-24.159,152.722-22.147,188.997-19.089
		c-1,0.225-154.633,10.257-205.547,32.195c-15.113,5.825-27.905,17.416-34.419,32.333c0.905,0.964,1.81,1.948,2.735,2.932
		c-4.605,6.455-9.78,12.398-15.546,17.829c10.272,0.708,17.947-6.553,26.527-10.863c55.373-29.488,122.86-29.523,186.38-27.511
		c23.792,1.673,47.663,0.787,71.454,2.479c-5.904-10.509-5.274-23.516,0.964-33.73c-10.962-11.109-9.221-21.051-0.433-30.227
		c-2.263-5.608-3.385-11.552-3.66-17.554C347.017,491.067,272.953,451.841,241.788,484.667 M46.514,529.889
		c10.272,3.129,20.466,6.553,30.266,11.001c16.156-9.426,33.415-16.629,50.437-24.225c-5.117-1.614-10.371-2.598-15.566-3.896
		c4.467-7.242,9.82-13.874,15.31-20.348C97.994,499.741,71.801,514.402,46.514,529.889 M1558.352,578.968
		c-47.269,20.446-97.135,35.343-148.222,42.251c3.542,15.92,16.373,29.184,32.057,33.474
		c45.525,13.087,189.322-36.733,287.294-99.399c-17.593-14.877-35.501-29.4-52.779-44.671
		C1640.374,538.371,1600.071,560.509,1558.352,578.968 M1542.057,647.491c-21.686,5.943-43.412,12.378-65.865,14.622
		c2.875,11.323,8.345,47.706,38.433,55.908c55.843,16.537,198.615-101.039,242.603-139.504c-7.537-6.435-15.074-12.85-22.788-19.069
		C1675.481,598.667,1609.93,627.575,1542.057,647.491 M1677.862,651.289c-35.678,25.229-72.871,48.824-112.839,66.613
		c22.495,23.477,44.758,64.638,77.22,54.885c20.164-5.478,105.101-49.638,181.637-138.835
		c-21.47-17.987-42.979-35.914-64.508-53.842C1733.987,605.771,1707.459,630.527,1677.862,651.289 M1781.492,687.99
		c-30.704,28.27-111.122,90.613-148.261,92.59c7.455,54.241,90.127,100.595,189.902-1.81c27-26.429,48.391-58.407,62.441-93.475
		c-19.089-15.802-38.079-31.762-57.207-47.505C1814.336,655.953,1798.18,672.306,1781.492,687.99 M1888.231,694.366
		c-22.463,60.419-91.392,132.793-149.816,147.77c-12.194,48.774,36.551,79.174,72.497,67.794
		c69.368-19.791,80.217-132.04,82.435-204.563c-0.276-5.668,1.22-11.925-2.302-16.885
		C1890.002,690.391,1889.057,692.359,1888.231,694.366 M1899.113,696.531c1.813,64.608-8.696,170.061-61.359,207.259
		c24.872,28.733,50.505,81.505,95.384,90.208c66.953,12.247,122.594-90.689,59.608-222.805
		C1989.997,764.291,1991.956,770.765,1899.113,696.531 M1998.551,773.2c39.898,75.56,44.888,196.596-35.658,225.246
		c39.063,26.226,107.959,52.737,133.01,13.657c14.429-22.353,7.144-38.991-15.881-186.222c-5.49-5.195-13.244-7.773-19.482-12.142
		C2039.129,801.38,2019.076,786.916,1998.551,773.2 M1024.166,820.115c-2.814,3.208-7.38,6.14-6.317,11.079
		c3.17,86.089,10.488,172.534-54.098,191.673c13.765,20.073,40.098,29.558,70.608,10.076c7.092-56.936,4.126-199.22,10.627-237.151
		C1038.276,804.096,1031.821,812.637,1024.166,820.115 M2086.103,828.498c2.397,12.013,26.949,140.055,23.123,167.724
		c-2.204,13.303-9.781,25.504-20.998,33.041c31.762,22.651,63.032,46.01,93.928,69.86c34.601-86.814-39.126-173.248-73.875-258.365
		C2101.315,835.937,2093.404,832.709,2086.103,828.498 M1005.746,841.23c-3.244,20.487-33.781,132.371-94.853,144.444
		c5.376,41.592,66.017,45.667,89.126-2.814c11.848-23.125,12.778-41.033,13.815-152.394
		C1010.941,833.851,1005.943,836.291,1005.746,841.23 M956.253,876.18c-6.71,3.733-33.94,72.351-86.292,68.168
		c0.472,10.115,2.047,21.43,10.272,28.357c17.767,15.288,58.082,9.149,85.21-43.825c13.815-27.649,27-55.908,35.009-85.859
		C986.48,855.045,971.839,866.341,956.253,876.18 M2113.339,842.824c30.258,65.062,117.198,173.534,71.573,266.827
		c-9.584-6.691-18.144-14.779-28.102-20.938c10.903,23.192,15.474,23.406,174.789,164.123c14.444-28.18,13.008-62.048,2.912-91.389
		c-30.429-93.058-134.021-129.755-179.177-299.18C2141.125,856.245,2127.114,849.732,2113.339,842.824 M2160.568,867.639
		c54.763,175.984,181.76,215.066,188.308,329.938c0.65,3.286-0.295,7.419,2.381,10.016c23.359,24.107,51.146,45.144,83.656,54.944
		c-33.258-47.525-55.121-105.007-52.366-163.631c-2.5-27.902,18.915,30.431-114.433-152.335c-6.042-7.734-11.04-16.412-18.046-23.32
		C2199.68,900.747,2182.788,884.457,2160.568,867.639 M2385.361,1090.917c-0.334,21.706,4.369,43.097,8.462,64.311
		c2.125,6.593,1.771,15.153,8.344,19.246c52.699,42.138,106.347,68.605,186.478,85.859c-28.57-22.792-73.924-31.032-105.913-81.786
		c-6.966-10.095-11.335-21.667-16.648-32.529C2436.448,1132.105,2409.035,1113.528,2385.361,1090.917z"/>
	<path fill="#141414" d="M2100.862,137.392c11.315-2.755,18.203-15.192,30.581-14.877c10.666-1.791,19.738,4.959,25.76,13.047
		c-1.201-0.02-3.601-0.039-4.822-0.059c2.106,5.058,4.428,10.017,7.419,14.641c-6.061,4.684-10.567,11.689-18.104,14.149
		c-22.902,8.391-35.239-17.23-44.12-23.261c-4.802-0.649-9.682-1.004-14.031-3.267
		C2089.291,137.844,2095.253,139.438,2100.862,137.392 M2101.393,140.875c23.922,21.61,12.536,19.953,39.948,20.584
		c-5.097-0.354-10.272-0.197-15.231-1.358c-8.383-2.853-13.185-12.831-10.627-21.194c2.401-5.077,7.065-8.442,10.646-12.634
		C2117.235,130.091,2110.859,138.139,2101.393,140.875 M2136.048,131.763c-0.591,1.279-1.791,3.798-2.401,5.058
		c1.279,1.751,2.578,3.483,3.896,5.235c1.476-1.988,3.011-3.955,4.605-5.884C2140.338,134.381,2138.272,132.924,2136.048,131.763z"
		/>
	<path fill="#141414" d="M2280.885,188.065c24.753,3.212,19.765,1.395,24.008,10.194c-6.652,1.22-13.756,5.451-20.289,1.712
		C2279.941,198.003,2278.918,192.316,2280.885,188.065z"/>
	<path fill="#141414" d="M1644.172,235.373c-88.051,94.825-332.987,235.836-475.149,269.031
		c9.121-4.264,164.717-57.986,314.411-153.929C1599.031,275.031,1620.347,252.098,1644.172,235.373z"/>
	<path fill="#141414" d="M1714.013,685.294c23.221-20.997,44.042-44.553,67.696-65.019
		c-30.313,45.778-101.815,111.792-156.231,140.508C1654.169,734.688,1685.813,711.959,1714.013,685.294z"/>
</g>
</svg>
